<svg width="512" height="512" viewBox="0 0 512 512" fill="none" xmlns="http://www.w3.org/2000/svg">
<path d="M348.514 69.841L330.328 95.1277C308.357 79.789 281.849 71.4077 254.894 71.4077C225.782 71.4077 197.566 81.0704 174.62 98.7904L156.432 73.5637C184.649 52.061 219.354 40.3024 254.894 40.3024C288.806 40.3024 321.03 50.4944 348.514 69.841Z" fill="#18A7C4"/>
<path d="M224.623 331.621V361.261C200.8 358.677 190.243 352.473 190.161 352.432L189.265 351.964C163.369 340.593 140.747 322.426 123.821 299.437C103.111 271.344 92.1865 238.001 92.1865 203.01C92.1865 185.717 94.8719 168.813 100.181 152.578L124.371 186.165C123.659 191.74 123.292 197.394 123.292 203.01C123.292 260.093 159.707 310.382 213.901 328.121L224.623 331.621Z" fill="#18A7C4"/>
<path d="M405.333 265.036C396.606 286.194 383.362 305.48 366.661 321.266C351.16 335.914 333.216 347.224 313.32 354.914L308.764 356.663V442.064H193.517V385.674C200.373 388.012 210.606 390.616 224.622 392.02V410.96H277.658V333.207L289.172 330.115C324.366 320.635 353.966 297.036 371.014 265.036H405.333Z" fill="#18A7C4"/>
<path d="M308.764 499.821H193.518V468.715H308.764V499.821Z" fill="#18A7C4"/>
<path d="M438.656 20V75.2733L424.192 69.964L282.785 266.299H219.496L74 64.288H112.348L251.151 257.021L393.86 58.836L371.685 50.6987L438.656 20Z" fill="#E81A89"/>
</svg>
