<svg width="328" height="143" viewBox="0 0 328 143" fill="none" xmlns="http://www.w3.org/2000/svg">
<path d="M118.53 44.2376H129.651C130.577 44.2376 131.316 44.4426 131.866 44.8519C132.416 45.2616 132.749 45.7698 132.866 46.3774L135.819 64.8035C136.08 66.3624 136.298 67.8879 136.471 69.38C136.645 70.8725 136.789 72.3718 136.905 73.8774C137.427 72.3984 137.998 70.9194 138.622 69.4396C139.244 67.9606 139.903 66.4148 140.598 64.8035L148.504 46.3774C148.765 45.7436 149.228 45.2282 149.894 44.832C150.56 44.4358 151.284 44.2376 152.066 44.2376H162.752L140.859 85.3292H129.477L118.53 44.2376Z" fill="#18A7C4"/>
<path d="M178.911 96.028C178.448 96.8466 177.875 97.4411 177.195 97.8111C176.514 98.181 175.697 98.3662 174.741 98.3662H164.663L174.958 81.644L163.794 44.2376H175.176C176.131 44.2376 176.848 44.4494 177.325 44.8718C177.803 45.2946 178.129 45.7968 178.303 46.3774L182.213 64.0898C182.387 64.8567 182.545 65.6157 182.69 66.3683C182.835 67.1213 182.951 67.8811 183.038 68.6472C183.385 67.8811 183.762 67.1082 184.167 66.329C184.572 65.5501 184.964 64.7772 185.34 64.0107L193.68 46.3774C194.028 45.7698 194.534 45.2616 195.201 44.8519C195.867 44.4426 196.548 44.2376 197.243 44.2376H208.103L178.911 96.028Z" fill="#18A7C4"/>
<path d="M225.826 65.4769C226.897 65.4769 227.831 65.2262 228.628 64.7239C229.424 64.2224 230.09 63.5688 230.626 62.7625C231.161 61.957 231.567 61.0526 231.842 60.048C232.117 59.0447 232.255 58.0274 232.255 56.997C232.255 55.28 231.864 53.9456 231.082 52.9951C230.3 52.0438 229.098 51.5686 227.477 51.5686C226.404 51.5686 225.471 51.8002 224.674 52.262C223.878 52.7245 223.22 53.3385 222.698 54.1042C222.177 54.8711 221.786 55.7557 221.525 56.7594C221.265 57.7636 221.134 58.8067 221.134 59.8895C221.134 61.6332 221.525 63.0005 222.307 63.9908C223.089 64.9814 224.262 65.4769 225.826 65.4769ZM231.212 84.7744V84.2992C231.212 84.1406 231.197 83.996 231.169 83.8633C229.692 83.6519 228.338 83.4933 227.107 83.3876C225.876 83.2823 224.754 83.2291 223.741 83.2291C222.177 83.2291 220.837 83.3348 219.722 83.5462C218.608 83.758 217.695 84.0417 216.986 84.3981C216.276 84.755 215.761 85.1778 215.443 85.6661C215.125 86.1545 214.965 86.6627 214.965 87.1916C214.965 88.5391 215.509 89.5556 216.595 90.2426C217.681 90.9293 219.512 91.273 222.09 91.273C223.421 91.273 224.653 91.1149 225.782 90.7978C226.912 90.4807 227.874 90.038 228.671 89.4702C229.467 88.9019 230.09 88.222 230.539 87.4297C230.988 86.6369 231.212 85.7516 231.212 84.7744ZM244.592 56.5214C244.592 58.2122 244.338 59.6519 243.832 60.8408C243.325 62.0297 242.767 63.1527 242.159 64.2089C241.552 65.2659 240.993 66.3488 240.487 67.4582C239.979 68.5677 239.726 69.8754 239.726 71.3811C239.726 72.4647 239.922 73.4617 240.313 74.3729C240.704 75.2844 241.131 76.2155 241.594 77.1664C242.057 78.1177 242.485 79.1218 242.876 80.178C243.267 81.2347 243.462 82.4502 243.462 83.8235C243.462 85.9367 242.955 87.9375 241.942 89.8266C240.928 91.7153 239.466 93.3668 237.555 94.7798C235.643 96.1929 233.29 97.3162 230.496 98.1483C227.701 98.9804 224.523 99.3961 220.96 99.3961C218.035 99.3961 215.415 99.1187 213.098 98.5644C210.781 98.0096 208.819 97.2566 207.212 96.3057C205.605 95.3544 204.366 94.2255 203.498 92.9177C202.629 91.61 202.194 90.2033 202.194 88.6977C202.194 86.3727 202.839 84.4379 204.128 82.8925C205.416 81.3471 207.074 80.1057 209.101 79.1675C211.129 78.2301 213.373 77.5697 215.835 77.1862C218.296 76.8036 220.7 76.6116 223.045 76.6116C224.377 76.6116 225.645 76.6649 226.847 76.7702C228.049 76.8763 229.156 77.0217 230.17 77.2061C230.112 76.889 230.082 76.5659 230.082 76.2353V75.1851C230.082 73.7851 230.474 72.1873 231.256 70.3904C230.126 71.0779 228.83 71.6191 227.368 72.0153C225.905 72.4114 224.088 72.6093 221.916 72.6093C220.207 72.6093 218.572 72.3518 217.008 71.8368C215.443 71.3218 214.06 70.5359 212.859 69.4792C211.657 68.423 210.694 67.0954 209.971 65.4968C209.246 63.8986 208.884 62.0035 208.884 59.8104C208.884 57.7767 209.311 55.7886 210.166 53.8467C211.02 51.9051 212.294 50.1754 213.988 48.6558C215.683 47.1371 217.782 45.9156 220.287 44.9905C222.791 44.0662 225.71 43.6037 229.04 43.6037C230.749 43.6037 232.392 43.7821 233.97 44.1385C235.549 44.4954 237.004 45.0302 238.336 45.7435H251.282L250.673 49.5869C250.413 51.1986 249.573 52.2159 248.154 52.6383L244.331 53.8272C244.505 54.6987 244.592 55.5971 244.592 56.5214Z" fill="#18A7C4"/>
<path d="M274.739 51.9646C272.509 51.9646 270.554 52.7768 268.875 54.4017C267.194 56.0265 265.935 58.2522 265.095 61.0787C267.904 60.6821 270.177 60.2661 271.915 59.8301C273.653 59.3946 274.999 58.919 275.955 58.404C276.911 57.8886 277.555 57.3339 277.888 56.7394C278.22 56.1453 278.388 55.5048 278.388 54.8177C278.388 54.1311 278.098 53.4841 277.519 52.8762C276.939 52.269 276.012 51.9646 274.739 51.9646ZM290.551 54.3421C290.551 56.2184 290.145 57.9351 289.334 59.4936C288.523 61.0528 287.112 62.4325 285.099 63.6346C283.086 64.837 280.379 65.8602 276.976 66.7054C273.573 67.551 269.294 68.2111 264.139 68.6867C264.197 71.487 264.87 73.5347 266.159 74.8285C267.448 76.1231 269.352 76.77 271.871 76.77C273.059 76.77 274.087 76.6779 274.956 76.4927C275.825 76.3083 276.585 76.0707 277.236 75.7798C277.888 75.4893 278.474 75.1853 278.996 74.8682C279.517 74.5511 280.017 74.2479 280.494 73.9571C280.972 73.6662 281.472 73.429 281.993 73.2434C282.514 73.059 283.108 72.966 283.774 72.966C284.208 72.966 284.628 73.0654 285.034 73.2636C285.439 73.4615 285.801 73.719 286.12 74.0361L289.595 77.7213C288.001 79.1479 286.445 80.3829 284.925 81.426C283.405 82.4703 281.841 83.3282 280.233 84.0018C278.626 84.6753 276.917 85.1709 275.108 85.488C273.297 85.8051 271.321 85.9636 269.178 85.9636C266.514 85.9636 264.067 85.5472 261.837 84.7151C259.607 83.883 257.688 82.708 256.081 81.1884C254.474 79.6697 253.228 77.8402 252.345 75.7003C251.461 73.5605 251.021 71.183 251.021 68.5679C251.021 66.3752 251.288 64.2354 251.824 62.1484C252.36 60.0618 253.127 58.1004 254.127 56.2637C255.125 54.4283 256.348 52.7371 257.797 51.1921C259.245 49.6467 260.874 48.3191 262.684 47.2097C264.493 46.1002 266.477 45.2351 268.635 44.614C270.792 43.9937 273.088 43.683 275.52 43.683C277.924 43.683 280.06 44.0001 281.928 44.6339C283.796 45.2681 285.366 46.0938 286.641 47.1107C287.915 48.1276 288.885 49.2704 289.551 50.538C290.218 51.806 290.551 53.074 290.551 54.3421Z" fill="#18A7C4"/>
<path d="M323.565 52.8761C323.159 53.3518 322.783 53.6951 322.435 53.9061C322.088 54.1179 321.624 54.2232 321.045 54.2232C320.466 54.2232 319.894 54.1044 319.329 53.8668C318.764 53.6291 318.157 53.3585 317.505 53.0541C316.853 52.7513 316.115 52.4795 315.289 52.2419C314.464 52.0043 313.516 51.8855 312.444 51.8855C310.446 51.8855 309.019 52.236 308.165 52.9353C307.311 53.6359 306.884 54.5403 306.884 55.6498C306.884 56.363 307.123 56.971 307.601 57.4725C308.078 57.9748 308.709 58.4234 309.49 58.82C310.272 59.2162 311.162 59.5794 312.162 59.9096C313.161 60.2402 314.182 60.6097 315.225 61.019C316.267 61.4287 317.288 61.8976 318.287 62.4257C319.286 62.9546 320.176 63.6015 320.958 64.3673C321.741 65.1342 322.37 66.0454 322.848 67.1016C323.326 68.1582 323.565 69.4135 323.565 70.8659C323.565 72.9266 323.115 74.8749 322.218 76.7108C321.32 78.547 320.031 80.1453 318.352 81.5055C316.672 82.8665 314.638 83.9489 312.248 84.7548C309.859 85.5602 307.173 85.9636 304.19 85.9636C302.771 85.9636 301.367 85.8308 299.977 85.567C298.587 85.3031 297.276 84.9467 296.046 84.4973C294.814 84.0482 293.692 83.5134 292.679 82.8923C291.665 82.272 290.84 81.6044 290.202 80.8911L293.504 76.3738C293.91 75.8457 294.38 75.4297 294.916 75.1257C295.452 74.8225 296.111 74.6699 296.892 74.6699C297.616 74.6699 298.239 74.8285 298.761 75.1456C299.282 75.4627 299.847 75.806 300.454 76.1759C301.063 76.5463 301.786 76.8892 302.627 77.2063C303.466 77.523 304.567 77.6816 305.928 77.6816C307.839 77.6816 309.258 77.2922 310.185 76.5125C311.112 75.7337 311.576 74.8153 311.576 73.7587C311.576 72.9401 311.337 72.2666 310.858 71.7377C310.38 71.2096 309.751 70.7542 308.969 70.3708C308.187 69.9881 307.304 69.6444 306.319 69.3404C305.334 69.0372 304.321 68.7002 303.278 68.3303C302.236 67.9603 301.222 67.5311 300.237 67.042C299.252 66.5536 298.37 65.9393 297.588 65.1994C296.806 64.4603 296.176 63.5487 295.698 62.4655C295.22 61.3826 294.981 60.0749 294.981 58.5426C294.981 56.6404 295.365 54.7918 296.132 52.9949C296.899 51.1988 298.044 49.6069 299.564 48.2201C301.085 46.8333 302.974 45.7175 305.233 44.8715C307.492 44.0267 310.126 43.6039 313.139 43.6039C316.151 43.6039 318.837 44.0791 321.197 45.03C323.557 45.9809 325.505 47.144 327.04 48.5174L323.565 52.8761Z" fill="#18A7C4"/>
<path d="M89.6884 14.8541L83.7465 22.3902C76.5683 17.8189 67.9077 15.321 59.1012 15.321C49.5898 15.321 40.3711 18.2007 32.8741 23.4818L26.9318 15.9635C36.1508 9.55515 47.4897 6.05074 59.1012 6.05074C70.1808 6.05074 80.7089 9.08823 89.6884 14.8541Z" fill="#18A7C4"/>
<path d="M49.2111 92.8718V101.705C41.4278 100.935 37.9786 99.0863 37.952 99.074L37.6593 98.9345C29.1986 95.5457 21.8074 90.1315 16.2776 83.2801C9.51107 74.9075 5.94202 64.9704 5.94202 54.5422C5.94202 49.3883 6.81936 44.3505 8.55401 39.5121L16.4571 49.5219C16.2244 51.1833 16.1047 52.8685 16.1047 54.5422C16.1047 71.5545 28.0019 86.5421 45.7082 91.8287L49.2111 92.8718Z" fill="#18A7C4"/>
<path d="M108.252 73.0277C105.401 79.3332 101.074 85.0812 95.6173 89.7856C90.5527 94.1511 84.6901 97.522 78.1898 99.8137L76.7012 100.335V125.787H39.0482V108.981C41.2882 109.678 44.6316 110.454 49.2109 110.872V116.517H66.5386V93.3445L70.3002 92.423C81.7989 89.5977 91.4697 82.5646 97.0396 73.0277H108.252Z" fill="#18A7C4"/>
<path d="M76.7014 143H39.0483V133.73H76.7014V143Z" fill="#18A7C4"/>
<path d="M119.139 3.8147e-05V16.473L114.414 14.8907L68.2137 73.4039H47.536L0 13.1991H12.5289L57.8781 70.639L104.504 11.5742L97.2588 9.14909L119.139 3.8147e-05Z" fill="#E81A89"/>
</svg>

